<svg width="37" height="33" viewBox="0 0 37 33" fill="none" xmlns="http://www.w3.org/2000/svg">
<g clip-path="url(#clip0_88_18)">
<path d="M12.3345 16.5C12.3345 13.4626 15.0946 10.9996 18.5002 10.9996C21.9058 10.9996 24.6674 13.4626 24.6674 16.5C24.6674 19.5374 21.9058 22.0004 18.5002 22.0004C15.0946 22.0004 12.3345 19.5374 12.3345 16.5ZM9.00066 16.5C9.00066 21.1794 13.2536 24.9726 18.5002 24.9726C23.7469 24.9726 27.9998 21.1794 27.9998 16.5C27.9998 11.8206 23.7469 8.02742 18.5002 8.02742C13.2536 8.02742 9.00066 11.8206 9.00066 16.5ZM26.1557 7.69156C26.1557 8.78445 27.1495 9.67209 28.3763 9.67209C29.6017 9.67209 30.5969 8.78445 30.5969 7.69156C30.5969 6.59867 29.6032 5.71236 28.3763 5.71236C27.1495 5.71236 26.1557 6.59867 26.1557 7.69156ZM11.0255 29.9306C9.22182 29.8573 8.24153 29.5894 7.58999 29.3628C6.72626 29.0629 6.11059 28.7057 5.46205 28.1286C4.815 27.5515 4.41302 27.0024 4.07828 26.2321C3.82424 25.651 3.52388 24.7767 3.44169 23.168C3.35203 21.4287 3.3341 20.9062 3.3341 16.5C3.3341 12.0938 3.35353 11.5727 3.44169 9.83203C3.52388 8.22334 3.82574 7.35036 4.07828 6.76793C4.41451 5.99758 4.815 5.44847 5.46205 4.87003C6.1091 4.29293 6.72477 3.93441 7.58999 3.63586C8.24153 3.40929 9.22182 3.1414 11.0255 3.06809C12.9756 2.98813 13.5614 2.97213 18.5002 2.97213C23.4405 2.97213 24.0248 2.98946 25.9764 3.06809C27.7801 3.1414 28.7589 3.41062 29.4119 3.63586C30.2757 3.93441 30.8913 4.29293 31.5399 4.87003C32.1869 5.44713 32.5874 5.99758 32.9236 6.76793C33.1777 7.34903 33.478 8.22334 33.5602 9.83203C33.6499 11.5727 33.6678 12.0938 33.6678 16.5C33.6678 20.9049 33.6499 21.4273 33.5602 23.168C33.478 24.7767 33.1762 25.651 32.9236 26.2321C32.5874 27.0024 32.1869 27.5515 31.5399 28.1286C30.8928 28.7057 30.2757 29.0629 29.4119 29.3628C28.7604 29.5894 27.7801 29.8573 25.9764 29.9306C24.0263 30.0105 23.4405 30.0265 18.5002 30.0265C13.5614 30.0265 12.9756 30.0105 11.0255 29.9306M10.8731 0.0999596C8.90352 0.179927 7.55861 0.458481 6.38256 0.866317C5.16617 1.28748 4.13507 1.85258 3.10546 2.76955C2.07735 3.68651 1.44375 4.60614 0.971538 5.69237C0.514269 6.74128 0.20195 7.94079 0.11229 9.69742C0.0211345 11.4567 0.000213623 12.0191 0.000213623 16.5C0.000213623 20.9809 0.0211345 21.5433 0.11229 23.3026C0.20195 25.0592 0.514269 26.2587 0.971538 27.3076C1.44375 28.3925 2.07586 29.3135 3.10546 30.2305C4.13357 31.1474 5.16467 31.7112 6.38256 32.1337C7.56011 32.5415 8.90352 32.8201 10.8731 32.9C12.8471 32.98 13.4762 33 18.5002 33C23.5257 33 24.1548 32.9813 26.1274 32.9C28.0969 32.8201 29.4418 32.5415 30.6179 32.1337C31.8343 31.7112 32.8654 31.1474 33.895 30.2305C34.9231 29.3135 35.5552 28.3925 36.0289 27.3076C36.4862 26.2587 36.8 25.0592 36.8881 23.3026C36.9778 21.542 36.9987 20.9809 36.9987 16.5C36.9987 12.0191 36.9778 11.4567 36.8881 9.69742C36.7985 7.94079 36.4862 6.74128 36.0289 5.69237C35.5552 4.60747 34.9231 3.68784 33.895 2.76955C32.8669 1.85258 31.8343 1.28748 30.6194 0.866317C29.4418 0.458481 28.0969 0.178595 26.1288 0.0999596C24.1563 0.0199919 23.5257 0 18.5017 0C13.4762 0 12.8471 0.0186591 10.8731 0.0999596" fill="white"/>
</g>
<defs>
<clipPath id="clip0_88_18">
<rect width="37" height="33" fill="white"/>
</clipPath>
</defs>
</svg>
