<svg width="37" height="33" viewBox="0 0 37 33" fill="none" xmlns="http://www.w3.org/2000/svg">
<path d="M11.6361 33C25.599 33 33.2349 20.3052 33.2349 9.29676C33.2349 8.93624 33.2282 8.57736 33.2134 8.21997C34.6991 7.04015 35.9814 5.57935 37 3.90605C35.6398 4.56968 34.1761 5.01633 32.6406 5.21771C34.2079 4.18638 35.4111 2.55478 35.9788 0.609923C34.4886 1.58004 32.8584 2.26391 31.1584 2.63208C29.7732 1.01277 27.8011 0 25.6173 0C21.4252 0 18.0257 3.73081 18.0257 8.32961C18.0257 8.98343 18.0924 9.61917 18.2227 10.2292C11.9135 9.88078 6.31895 6.56576 2.57481 1.5251C1.90045 2.79645 1.54575 4.24137 1.54693 5.7123C1.54693 8.60261 2.88705 11.1541 4.92506 12.6468C3.71955 12.6064 2.54051 12.2491 1.48707 11.6049C1.48594 11.6398 1.48594 11.6739 1.48594 11.7113C1.48594 15.7458 4.10256 19.1143 7.57605 19.8776C6.92368 20.0726 6.25051 20.1712 5.57437 20.1708C5.08607 20.1708 4.61019 20.118 4.14769 20.0206C5.11412 23.3307 7.9165 25.7394 11.2391 25.8067C8.64085 28.0416 5.36793 29.3727 1.81074 29.3727C1.20562 29.3733 0.600992 29.3347 0 29.2573C3.35963 31.6205 7.34886 32.9994 11.6365 32.9994" fill="white"/>
</svg>
